<svg xmlns="http://www.w3.org/2000/svg"
     xmlns:xlink="http://www.w3.org/1999/xlink"
     viewBox="0 0 900 260" width="900" height="260"
     style="border-radius:12px;overflow:hidden">
  <defs>
    <linearGradient id="sky" x1="0" y1="0" x2="0" y2="1">
      <stop offset="0%"   stop-color="#0d1a0d"/>
      <stop offset="100%" stop-color="#1a2d1a"/>
    </linearGradient>
    <linearGradient id="gnd" x1="0" y1="0" x2="0" y2="1">
      <stop offset="0%"   stop-color="#2ea043"/>
      <stop offset="100%" stop-color="#0d2818"/>
    </linearGradient>
    <filter id="glow">
      <feGaussianBlur in="SourceGraphic" stdDeviation="2" result="blur"/>
      <feMerge><feMergeNode in="blur"/><feMergeNode in="SourceGraphic"/></feMerge>
    </filter>
    <filter id="smoke">
      <feTurbulence type="fractalNoise" baseFrequency="0.05" numOctaves="2"/>
      <feDisplacementMap in="SourceGraphic" scale="4"/>
    </filter>
  </defs>

  <rect width="900" height="260" fill="url(#sky)"/>
  <defs><linearGradient id="sky" x1="0" y1="0" x2="0" y2="1">
    <stop offset="0%" stop-color="#020510"/>
    <stop offset="100%" stop-color="#0a0f1e"/>
  </linearGradient></defs>
  <circle class="star" cx="430.0" cy="85.0" r="1.5" fill="#7ee787" style="animation-delay:0.0s"/>
  <circle class="star" cx="860.0" cy="15.0" r="0.8" fill="#7ee787" style="animation-delay:0.3s"/>
  <circle class="star" cx="390.0" cy="100.0" r="0.8" fill="#7ee787" style="animation-delay:0.6s"/>
  <circle class="star" cx="820.0" cy="30.0" r="0.8" fill="#7ee787" style="animation-delay:0.9s"/>
  <circle class="star" cx="350.0" cy="115.0" r="0.8" fill="#7ee787" style="animation-delay:1.2s"/>
  <circle class="star" cx="780.0" cy="45.0" r="1.5" fill="#7ee787" style="animation-delay:1.5s"/>
  <circle class="star" cx="310.0" cy="130.0" r="0.8" fill="#7ee787" style="animation-delay:1.8s"/>
  <circle class="star" cx="740.0" cy="60.0" r="0.8" fill="#7ee787" style="animation-delay:2.1s"/>
  <circle class="star" cx="270.0" cy="145.0" r="0.8" fill="#7ee787" style="animation-delay:2.4s"/>
  <circle class="star" cx="700.0" cy="75.0" r="0.8" fill="#7ee787" style="animation-delay:2.7s"/>
  <circle class="star" cx="230.0" cy="5.0" r="1.5" fill="#7ee787" style="animation-delay:3.0s"/>
  <circle class="star" cx="660.0" cy="90.0" r="0.8" fill="#7ee787" style="animation-delay:3.3s"/>
  <circle class="star" cx="190.0" cy="20.0" r="0.8" fill="#7ee787" style="animation-delay:3.6s"/>
  <circle class="star" cx="620.0" cy="105.0" r="0.8" fill="#7ee787" style="animation-delay:3.9s"/>
  <circle class="star" cx="150.0" cy="35.0" r="0.8" fill="#7ee787" style="animation-delay:0.2s"/>
  <circle class="star" cx="580.0" cy="120.0" r="1.5" fill="#7ee787" style="animation-delay:0.5s"/>
  <circle class="star" cx="110.0" cy="50.0" r="0.8" fill="#7ee787" style="animation-delay:0.8s"/>
  <circle class="star" cx="540.0" cy="135.0" r="0.8" fill="#7ee787" style="animation-delay:1.1s"/>
  <circle class="star" cx="70.0" cy="65.0" r="0.8" fill="#7ee787" style="animation-delay:1.4s"/>
  <circle class="star" cx="500.0" cy="150.0" r="0.8" fill="#7ee787" style="animation-delay:1.7s"/>
  <circle class="star" cx="30.0" cy="80.0" r="1.5" fill="#7ee787" style="animation-delay:2.0s"/>
  <circle class="star" cx="460.0" cy="10.0" r="0.8" fill="#7ee787" style="animation-delay:2.3s"/>
  <circle class="star" cx="890.0" cy="95.0" r="0.8" fill="#7ee787" style="animation-delay:2.6s"/>
  <circle class="star" cx="420.0" cy="25.0" r="0.8" fill="#7ee787" style="animation-delay:2.9s"/>
  <circle class="star" cx="850.0" cy="110.0" r="0.8" fill="#7ee787" style="animation-delay:3.2s"/>
  <circle class="star" cx="380.0" cy="40.0" r="1.5" fill="#7ee787" style="animation-delay:3.5s"/>
  <circle class="star" cx="810.0" cy="125.0" r="0.8" fill="#7ee787" style="animation-delay:3.8s"/>
  <circle class="star" cx="340.0" cy="55.0" r="0.8" fill="#7ee787" style="animation-delay:0.1s"/>
  <circle class="star" cx="770.0" cy="140.0" r="0.8" fill="#7ee787" style="animation-delay:0.4s"/>
  <circle class="star" cx="300.0" cy="70.0" r="0.8" fill="#7ee787" style="animation-delay:0.7s"/>
  <circle class="star" cx="730.0" cy="0.0" r="1.5" fill="#7ee787" style="animation-delay:1.0s"/>
  <circle class="star" cx="260.0" cy="85.0" r="0.8" fill="#7ee787" style="animation-delay:1.3s"/>
  <circle class="star" cx="690.0" cy="15.0" r="0.8" fill="#7ee787" style="animation-delay:1.6s"/>
  <circle class="star" cx="220.0" cy="100.0" r="0.8" fill="#7ee787" style="animation-delay:1.9s"/>
  <circle class="star" cx="650.0" cy="30.0" r="0.8" fill="#7ee787" style="animation-delay:2.2s"/>
  <circle class="star" cx="180.0" cy="115.0" r="1.5" fill="#7ee787" style="animation-delay:2.5s"/>
  <circle class="star" cx="610.0" cy="45.0" r="0.8" fill="#7ee787" style="animation-delay:2.8s"/>
  <circle class="star" cx="140.0" cy="130.0" r="0.8" fill="#7ee787" style="animation-delay:3.1s"/>
  <circle class="star" cx="570.0" cy="60.0" r="0.8" fill="#7ee787" style="animation-delay:3.4s"/>
  <circle class="star" cx="100.0" cy="145.0" r="0.8" fill="#7ee787" style="animation-delay:3.7s"/>
  <circle class="star" cx="530.0" cy="75.0" r="1.5" fill="#7ee787" style="animation-delay:0.0s"/>
  <circle class="star" cx="60.0" cy="5.0" r="0.8" fill="#7ee787" style="animation-delay:0.3s"/>
  <circle class="star" cx="490.0" cy="90.0" r="0.8" fill="#7ee787" style="animation-delay:0.6s"/>
  <circle class="star" cx="20.0" cy="20.0" r="0.8" fill="#7ee787" style="animation-delay:0.9s"/>
  <circle class="star" cx="450.0" cy="105.0" r="0.8" fill="#7ee787" style="animation-delay:1.2s"/>
  <circle class="star" cx="880.0" cy="35.0" r="1.5" fill="#7ee787" style="animation-delay:1.5s"/>
  <circle class="star" cx="410.0" cy="120.0" r="0.8" fill="#7ee787" style="animation-delay:1.8s"/>
  <circle class="star" cx="840.0" cy="50.0" r="0.8" fill="#7ee787" style="animation-delay:2.1s"/>
  <circle class="star" cx="370.0" cy="135.0" r="0.8" fill="#7ee787" style="animation-delay:2.4s"/>
  <circle class="star" cx="800.0" cy="65.0" r="0.8" fill="#7ee787" style="animation-delay:2.7s"/>
  <circle class="star" cx="330.0" cy="150.0" r="1.5" fill="#7ee787" style="animation-delay:3.0s"/>
  <circle class="star" cx="760.0" cy="80.0" r="0.8" fill="#7ee787" style="animation-delay:3.3s"/>
  <circle class="star" cx="290.0" cy="10.0" r="0.8" fill="#7ee787" style="animation-delay:3.6s"/>
  <circle class="star" cx="720.0" cy="95.0" r="0.8" fill="#7ee787" style="animation-delay:3.9s"/>
  <circle class="star" cx="250.0" cy="25.0" r="0.8" fill="#7ee787" style="animation-delay:0.2s"/>
  <circle class="star" cx="680.0" cy="110.0" r="1.5" fill="#7ee787" style="animation-delay:0.5s"/>
  <circle class="star" cx="210.0" cy="40.0" r="0.8" fill="#7ee787" style="animation-delay:0.8s"/>
  <circle class="star" cx="640.0" cy="125.0" r="0.8" fill="#7ee787" style="animation-delay:1.1s"/>
  <circle class="star" cx="170.0" cy="55.0" r="0.8" fill="#7ee787" style="animation-delay:1.4s"/>
  <circle class="star" cx="600.0" cy="140.0" r="0.8" fill="#7ee787" style="animation-delay:1.7s"/>
  
  <circle class="moon" r="12" fill="#f5d060"
    filter="url(#glow)" style="animation-duration:30s">
    <animateMotion dur="30s" repeatCount="indefinite"
      path="M -20,175 Q 450,-30 920,175"/>
  </circle>
  <ellipse class="cloud1" cx="100" cy="35" rx="55" ry="16" fill="rgba(255,255,255,0.12)"/>
  <ellipse class="cloud1" cx="120" cy="28" rx="35" ry="12" fill="rgba(255,255,255,0.12)"/>
  <ellipse class="cloud2" cx="600" cy="50" rx="65" ry="18" fill="rgba(255,255,255,0.12)"/>
  <ellipse class="cloud2" cx="625" cy="40" rx="40" ry="13" fill="rgba(255,255,255,0.12)"/>
  

  <!-- Ground -->
  <rect x="0" y="195" width="900" height="65" fill="url(#gnd)"/>

  <!-- Columns / Buildings -->
  <g>
    <rect x="0.0" y="189" width="16.3" height="6" fill="#0d2818"/>
    <rect x="4.9" y="189" width="2" height="5" fill="#5a3a1a"/>
    <ellipse cx="5.9" cy="187.0" rx="4" ry="4" fill="#2ea043"/>
  </g>
  <g>
    <rect x="17.3" y="189" width="16.3" height="6" fill="#0d2818"/>
    <rect x="22.2" y="189" width="2" height="5" fill="#5a3a1a"/>
    <ellipse cx="23.2" cy="187.0" rx="4" ry="4" fill="#2ea043"/>
  </g>
  <g>
    <rect x="34.6" y="189" width="16.3" height="6" fill="#0d2818"/>
    <rect x="39.5" y="189" width="2" height="5" fill="#5a3a1a"/>
    <ellipse cx="40.5" cy="187.0" rx="4" ry="4" fill="#2ea043"/>
  </g>
  <g>
    <rect x="51.9" y="189" width="16.3" height="6" fill="#0d2818"/>
    <rect x="56.8" y="189" width="2" height="5" fill="#5a3a1a"/>
    <ellipse cx="57.8" cy="187.0" rx="4" ry="4" fill="#2ea043"/>
  </g>
  <g>
    <rect x="69.2" y="189" width="16.3" height="6" fill="#0d2818"/>
    <rect x="74.1" y="189" width="2" height="5" fill="#5a3a1a"/>
    <ellipse cx="75.1" cy="187.0" rx="4" ry="4" fill="#2ea043"/>
  </g>
  <g>
    <rect x="86.5" y="189" width="16.3" height="6" fill="#0d2818"/>
    <rect x="91.4" y="189" width="2" height="5" fill="#5a3a1a"/>
    <ellipse cx="92.4" cy="187.0" rx="4" ry="4" fill="#2ea043"/>
  </g>
  <g>
    <rect x="103.8" y="189" width="16.3" height="6" fill="#0d2818"/>
    <rect x="108.7" y="189" width="2" height="5" fill="#5a3a1a"/>
    <ellipse cx="109.7" cy="187.0" rx="4" ry="4" fill="#2ea043"/>
  </g>
  <g>
    <rect x="121.2" y="189" width="16.3" height="6" fill="#0d2818"/>
    <rect x="126.0" y="189" width="2" height="5" fill="#5a3a1a"/>
    <ellipse cx="127.0" cy="187.0" rx="4" ry="4" fill="#2ea043"/>
  </g>
  <g>
    <rect x="138.5" y="189" width="16.3" height="6" fill="#0d2818"/>
    <rect x="143.4" y="189" width="2" height="5" fill="#5a3a1a"/>
    <ellipse cx="144.4" cy="187.0" rx="4" ry="4" fill="#2ea043"/>
  </g>
  <g>
    <rect x="155.8" y="189" width="16.3" height="6" fill="#0d2818"/>
    <rect x="160.7" y="189" width="2" height="5" fill="#5a3a1a"/>
    <ellipse cx="161.7" cy="187.0" rx="4" ry="4" fill="#2ea043"/>
  </g>
  <g>
    <rect x="173.1" y="189" width="16.3" height="6" fill="#0d2818"/>
    <rect x="178.0" y="189" width="2" height="5" fill="#5a3a1a"/>
    <ellipse cx="179.0" cy="187.0" rx="4" ry="4" fill="#2ea043"/>
  </g>
  <g>
    <rect x="190.4" y="189" width="16.3" height="6" fill="#0d2818"/>
    <rect x="195.3" y="189" width="2" height="5" fill="#5a3a1a"/>
    <ellipse cx="196.3" cy="187.0" rx="4" ry="4" fill="#2ea043"/>
  </g>
  <g>
    <rect x="207.7" y="189" width="16.3" height="6" fill="#0d2818"/>
    <rect x="212.6" y="189" width="2" height="5" fill="#5a3a1a"/>
    <ellipse cx="213.6" cy="187.0" rx="4" ry="4" fill="#2ea043"/>
  </g>
  <g>
    <rect x="225.0" y="189" width="16.3" height="6" fill="#0d2818"/>
    <rect x="229.9" y="189" width="2" height="5" fill="#5a3a1a"/>
    <ellipse cx="230.9" cy="187.0" rx="4" ry="4" fill="#2ea043"/>
  </g>
  <g>
    <rect x="242.3" y="189" width="16.3" height="6" fill="#0d2818"/>
    <rect x="247.2" y="189" width="2" height="5" fill="#5a3a1a"/>
    <ellipse cx="248.2" cy="187.0" rx="4" ry="4" fill="#2ea043"/>
  </g>
  <g>
    <rect x="259.6" y="189" width="16.3" height="6" fill="#0d2818"/>
    <rect x="264.5" y="189" width="2" height="5" fill="#5a3a1a"/>
    <ellipse cx="265.5" cy="187.0" rx="4" ry="4" fill="#2ea043"/>
  </g>
  <g>
    <rect x="276.9" y="189" width="16.3" height="6" fill="#0d2818"/>
    <rect x="281.8" y="189" width="2" height="5" fill="#5a3a1a"/>
    <ellipse cx="282.8" cy="187.0" rx="4" ry="4" fill="#2ea043"/>
  </g>
  <g>
    <rect x="294.2" y="189" width="16.3" height="6" fill="#0d2818"/>
    <rect x="299.1" y="189" width="2" height="5" fill="#5a3a1a"/>
    <ellipse cx="300.1" cy="187.0" rx="4" ry="4" fill="#2ea043"/>
  </g>
  <g>
    <rect x="311.5" y="189" width="16.3" height="6" fill="#0d2818"/>
    <rect x="316.4" y="189" width="2" height="5" fill="#5a3a1a"/>
    <ellipse cx="317.4" cy="187.0" rx="4" ry="4" fill="#2ea043"/>
  </g>
  <g>
    <rect x="328.8" y="189" width="16.3" height="6" fill="#0d2818"/>
    <rect x="333.7" y="189" width="2" height="5" fill="#5a3a1a"/>
    <ellipse cx="334.7" cy="187.0" rx="4" ry="4" fill="#2ea043"/>
  </g>
  <g>
    <rect x="346.2" y="189" width="16.3" height="6" fill="#0d2818"/>
    <rect x="351.0" y="189" width="2" height="5" fill="#5a3a1a"/>
    <ellipse cx="352.0" cy="187.0" rx="4" ry="4" fill="#2ea043"/>
  </g>
  <g>
    <rect x="363.5" y="189" width="16.3" height="6" fill="#0d2818"/>
    <rect x="368.4" y="189" width="2" height="5" fill="#5a3a1a"/>
    <ellipse cx="369.4" cy="187.0" rx="4" ry="4" fill="#2ea043"/>
  </g>
  <g>
    <rect x="380.8" y="189" width="16.3" height="6" fill="#0d2818"/>
    <rect x="385.7" y="189" width="2" height="5" fill="#5a3a1a"/>
    <ellipse cx="386.7" cy="187.0" rx="4" ry="4" fill="#2ea043"/>
  </g>
  <g>
    <rect x="398.1" y="189" width="16.3" height="6" fill="#0d2818"/>
    <rect x="403.0" y="189" width="2" height="5" fill="#5a3a1a"/>
    <ellipse cx="404.0" cy="187.0" rx="4" ry="4" fill="#2ea043"/>
  </g>
  <g>
    <rect x="415.4" y="189" width="16.3" height="6" fill="#0d2818"/>
    <rect x="420.3" y="189" width="2" height="5" fill="#5a3a1a"/>
    <ellipse cx="421.3" cy="187.0" rx="4" ry="4" fill="#2ea043"/>
  </g>
  <g>
    <rect x="432.7" y="189" width="16.3" height="6" fill="#0d2818"/>
    <rect x="437.6" y="189" width="2" height="5" fill="#5a3a1a"/>
    <ellipse cx="438.6" cy="187.0" rx="4" ry="4" fill="#2ea043"/>
  </g>
  <g>
    <rect x="450.0" y="189" width="16.3" height="6" fill="#0d2818"/>
    <rect x="454.9" y="189" width="2" height="5" fill="#5a3a1a"/>
    <ellipse cx="455.9" cy="187.0" rx="4" ry="4" fill="#2ea043"/>
  </g>
  <g>
    <rect x="467.3" y="189" width="16.3" height="6" fill="#0d2818"/>
    <rect x="472.2" y="189" width="2" height="5" fill="#5a3a1a"/>
    <ellipse cx="473.2" cy="187.0" rx="4" ry="4" fill="#2ea043"/>
  </g>
  <g>
    <rect x="484.6" y="189" width="16.3" height="6" fill="#0d2818"/>
    <rect x="489.5" y="189" width="2" height="5" fill="#5a3a1a"/>
    <ellipse cx="490.5" cy="187.0" rx="4" ry="4" fill="#2ea043"/>
  </g>
  <g>
    <rect x="501.9" y="189" width="16.3" height="6" fill="#0d2818"/>
    <rect x="506.8" y="189" width="2" height="5" fill="#5a3a1a"/>
    <ellipse cx="507.8" cy="187.0" rx="4" ry="4" fill="#2ea043"/>
  </g>
  <g>
    <rect x="519.2" y="189" width="16.3" height="6" fill="#0d2818"/>
    <rect x="524.1" y="189" width="2" height="5" fill="#5a3a1a"/>
    <ellipse cx="525.1" cy="187.0" rx="4" ry="4" fill="#2ea043"/>
  </g>
  <g>
    <rect x="536.5" y="189" width="16.3" height="6" fill="#0d2818"/>
    <rect x="541.4" y="189" width="2" height="5" fill="#5a3a1a"/>
    <ellipse cx="542.4" cy="187.0" rx="4" ry="4" fill="#2ea043"/>
  </g>
  <g>
    <rect x="553.8" y="189" width="16.3" height="6" fill="#0d2818"/>
    <rect x="558.7" y="189" width="2" height="5" fill="#5a3a1a"/>
    <ellipse cx="559.7" cy="187.0" rx="4" ry="4" fill="#2ea043"/>
  </g>
  <g>
    <rect x="571.2" y="189" width="16.3" height="6" fill="#0d2818"/>
    <rect x="576.0" y="189" width="2" height="5" fill="#5a3a1a"/>
    <ellipse cx="577.0" cy="187.0" rx="4" ry="4" fill="#2ea043"/>
  </g>
  <g>
    <rect x="588.5" y="189" width="16.3" height="6" fill="#0d2818"/>
    <rect x="593.4" y="189" width="2" height="5" fill="#5a3a1a"/>
    <ellipse cx="594.4" cy="187.0" rx="4" ry="4" fill="#2ea043"/>
  </g>
  <g>
    <rect x="605.8" y="189" width="16.3" height="6" fill="#0d2818"/>
    <rect x="610.7" y="189" width="2" height="5" fill="#5a3a1a"/>
    <ellipse cx="611.7" cy="187.0" rx="4" ry="4" fill="#2ea043"/>
  </g>
  <g>
    <rect x="623.1" y="189" width="16.3" height="6" fill="#0d2818"/>
    <rect x="628.0" y="189" width="2" height="5" fill="#5a3a1a"/>
    <ellipse cx="629.0" cy="187.0" rx="4" ry="4" fill="#2ea043"/>
  </g>
  <g>
    <rect x="640.4" y="189" width="16.3" height="6" fill="#0d2818"/>
    <rect x="645.3" y="189" width="2" height="5" fill="#5a3a1a"/>
    <ellipse cx="646.3" cy="187.0" rx="4" ry="4" fill="#2ea043"/>
  </g>
  <g>
    <rect x="657.7" y="189" width="16.3" height="6" fill="#0d2818"/>
    <rect x="662.6" y="189" width="2" height="5" fill="#5a3a1a"/>
    <ellipse cx="663.6" cy="187.0" rx="4" ry="4" fill="#2ea043"/>
  </g>
  <g>
    <rect x="675.0" y="189" width="16.3" height="6" fill="#0d2818"/>
    <rect x="679.9" y="189" width="2" height="5" fill="#5a3a1a"/>
    <ellipse cx="680.9" cy="187.0" rx="4" ry="4" fill="#2ea043"/>
  </g>
  <g>
    <rect x="692.3" y="189" width="16.3" height="6" fill="#0d2818"/>
    <rect x="697.2" y="189" width="2" height="5" fill="#5a3a1a"/>
    <ellipse cx="698.2" cy="187.0" rx="4" ry="4" fill="#2ea043"/>
  </g>
  <g>
    <rect x="709.6" y="189" width="16.3" height="6" fill="#0d2818"/>
    <rect x="714.5" y="189" width="2" height="5" fill="#5a3a1a"/>
    <ellipse cx="715.5" cy="187.0" rx="4" ry="4" fill="#2ea043"/>
  </g>
  <g class="col" data-week="42"><rect x="726.9" y="157" width="16.3" height="38"
    fill="#3776ab" rx="1"/><polygon points="726.9,157 735.1,149.0 743.2,157"
      fill="#ffd43b"/><rect class="win" x="733.9" y="161.0"
          width="2.5" height="2.5" fill="#fff9e0" rx="0.5"
          style="animation-delay:0.3s"/>
    <rect class="win" x="738.9" y="161.0"
          width="2.5" height="2.5" fill="#fff9e0" rx="0.5"
          style="animation-delay:0.6s"/>
    <rect class="win" x="728.9" y="171.0"
          width="2.5" height="2.5" fill="#fff9e0" rx="0.5"
          style="animation-delay:0.9s"/>
    <rect class="win" x="733.9" y="171.0"
          width="2.5" height="2.5" fill="#fff9e0" rx="0.5"
          style="animation-delay:1.2s"/>
    <rect class="win" x="728.9" y="181.0"
          width="2.5" height="2.5" fill="#fff9e0" rx="0.5"
          style="animation-delay:1.8s"/>
    <rect class="win" x="738.9" y="181.0"
          width="2.5" height="2.5" fill="#fff9e0" rx="0.5"
          style="animation-delay:2.4s"/></g>
  <g>
    <rect x="744.2" y="189" width="16.3" height="6" fill="#0d2818"/>
    <rect x="749.1" y="189" width="2" height="5" fill="#5a3a1a"/>
    <ellipse cx="750.1" cy="187.0" rx="4" ry="4" fill="#2ea043"/>
  </g>
  <g>
    <rect x="761.5" y="189" width="16.3" height="6" fill="#0d2818"/>
    <rect x="766.4" y="189" width="2" height="5" fill="#5a3a1a"/>
    <ellipse cx="767.4" cy="187.0" rx="4" ry="4" fill="#2ea043"/>
  </g>
  <g>
    <rect x="778.8" y="189" width="16.3" height="6" fill="#0d2818"/>
    <rect x="783.7" y="189" width="2" height="5" fill="#5a3a1a"/>
    <ellipse cx="784.7" cy="187.0" rx="4" ry="4" fill="#2ea043"/>
  </g>
  <g>
    <rect x="796.2" y="189" width="16.3" height="6" fill="#0d2818"/>
    <rect x="801.0" y="189" width="2" height="5" fill="#5a3a1a"/>
    <ellipse cx="802.0" cy="187.0" rx="4" ry="4" fill="#2ea043"/>
  </g>
  <g>
    <rect x="813.5" y="189" width="16.3" height="6" fill="#0d2818"/>
    <rect x="818.4" y="189" width="2" height="5" fill="#5a3a1a"/>
    <ellipse cx="819.4" cy="187.0" rx="4" ry="4" fill="#2ea043"/>
  </g>
  <g>
    <rect x="830.8" y="189" width="16.3" height="6" fill="#0d2818"/>
    <rect x="835.7" y="189" width="2" height="5" fill="#5a3a1a"/>
    <ellipse cx="836.7" cy="187.0" rx="4" ry="4" fill="#2ea043"/>
  </g>
  <g>
    <rect x="848.1" y="189" width="16.3" height="6" fill="#0d2818"/>
    <rect x="853.0" y="189" width="2" height="5" fill="#5a3a1a"/>
    <ellipse cx="854.0" cy="187.0" rx="4" ry="4" fill="#2ea043"/>
  </g>
  <g class="col" data-week="50"><rect x="865.4" y="55" width="16.3" height="140"
    fill="#3776ab" rx="1"/><line x1="873.5" y1="55" x2="873.5" y2="43.0"
      stroke="#ffd43b" stroke-width="1.5"/><circle class="blink" cx="873.5" cy="42.0" r="2"
      fill="#ff4444" style="animation-delay:0.50s"/><rect class="win" x="867.4" y="59.0"
          width="2.5" height="2.5" fill="#fff9e0" rx="0.5"
          style="animation-delay:0.0s"/>
    <rect class="win" x="877.4" y="59.0"
          width="2.5" height="2.5" fill="#fff9e0" rx="0.5"
          style="animation-delay:0.6s"/>
    <rect class="win" x="872.4" y="69.0"
          width="2.5" height="2.5" fill="#fff9e0" rx="0.5"
          style="animation-delay:1.2s"/>
    <rect class="win" x="877.4" y="69.0"
          width="2.5" height="2.5" fill="#fff9e0" rx="0.5"
          style="animation-delay:1.5s"/>
    <rect class="win" x="867.4" y="79.0"
          width="2.5" height="2.5" fill="#fff9e0" rx="0.5"
          style="animation-delay:1.8s"/>
    <rect class="win" x="872.4" y="79.0"
          width="2.5" height="2.5" fill="#fff9e0" rx="0.5"
          style="animation-delay:2.1s"/>
    <rect class="win" x="867.4" y="89.0"
          width="2.5" height="2.5" fill="#fff9e0" rx="0.5"
          style="animation-delay:2.7s"/>
    <rect class="win" x="877.4" y="89.0"
          width="2.5" height="2.5" fill="#fff9e0" rx="0.5"
          style="animation-delay:3.3s"/>
    <rect class="win" x="872.4" y="99.0"
          width="2.5" height="2.5" fill="#fff9e0" rx="0.5"
          style="animation-delay:3.9s"/>
    <rect class="win" x="877.4" y="99.0"
          width="2.5" height="2.5" fill="#fff9e0" rx="0.5"
          style="animation-delay:4.2s"/>
    <rect class="win" x="867.4" y="109.0"
          width="2.5" height="2.5" fill="#fff9e0" rx="0.5"
          style="animation-delay:4.5s"/>
    <rect class="win" x="872.4" y="109.0"
          width="2.5" height="2.5" fill="#fff9e0" rx="0.5"
          style="animation-delay:4.8s"/>
    <rect class="win" x="867.4" y="119.0"
          width="2.5" height="2.5" fill="#fff9e0" rx="0.5"
          style="animation-delay:0.4s"/>
    <rect class="win" x="877.4" y="119.0"
          width="2.5" height="2.5" fill="#fff9e0" rx="0.5"
          style="animation-delay:1.0s"/>
    <rect class="win" x="872.4" y="129.0"
          width="2.5" height="2.5" fill="#fff9e0" rx="0.5"
          style="animation-delay:1.6s"/>
    <rect class="win" x="877.4" y="129.0"
          width="2.5" height="2.5" fill="#fff9e0" rx="0.5"
          style="animation-delay:1.9s"/>
    <rect class="win" x="867.4" y="139.0"
          width="2.5" height="2.5" fill="#fff9e0" rx="0.5"
          style="animation-delay:2.2s"/>
    <rect class="win" x="872.4" y="139.0"
          width="2.5" height="2.5" fill="#fff9e0" rx="0.5"
          style="animation-delay:2.5s"/>
    <rect class="win" x="867.4" y="149.0"
          width="2.5" height="2.5" fill="#fff9e0" rx="0.5"
          style="animation-delay:3.1s"/>
    <rect class="win" x="877.4" y="149.0"
          width="2.5" height="2.5" fill="#fff9e0" rx="0.5"
          style="animation-delay:3.7s"/>
    <rect class="win" x="872.4" y="159.0"
          width="2.5" height="2.5" fill="#fff9e0" rx="0.5"
          style="animation-delay:4.3s"/>
    <rect class="win" x="877.4" y="159.0"
          width="2.5" height="2.5" fill="#fff9e0" rx="0.5"
          style="animation-delay:4.6s"/><circle class="smoke" cx="870.3" cy="50.0" r="4"
      fill="#8a8" opacity="0.6"
      style="animation-delay:2.00s"/></g>
  <g>
    <rect x="882.7" y="189" width="16.3" height="6" fill="#0d2818"/>
    <rect x="887.6" y="189" width="2" height="5" fill="#5a3a1a"/>
    <ellipse cx="888.6" cy="187.0" rx="4" ry="4" fill="#2ea043"/>
  </g>

  <!-- Train -->
  
  <g class="train" style="animation-duration:37.5s">
    <!-- Engine -->
    <rect x="0" y="183" width="22" height="10" fill="#ffd43b" rx="2"/>
    <rect x="16" y="179" width="6" height="4" fill="#ffd43b" rx="1"/>
    <circle cx="4" cy="193" r="3" fill="#333"/>
    <circle cx="16" cy="193" r="3" fill="#333"/>
    <!-- Smoke puff -->
    <circle class="train-smoke" cx="21" cy="177" r="3" fill="#8a8" opacity="0.7"/>
    <!-- Car 1 -->
    <rect x="-28" y="184" width="20" height="9" fill="#3776ab" rx="1"/>
    <circle cx="-22" cy="193" r="2.5" fill="#333"/>
    <circle cx="-12" cy="193" r="2.5" fill="#333"/>
    <!-- Car 2 -->
    <rect x="-54" y="184" width="20" height="9" fill="#3776ab" rx="1"/>
    <circle cx="-48" cy="193" r="2.5" fill="#333"/>
    <circle cx="-38" cy="193" r="2.5" fill="#333"/>
  </g>

  <!-- Vehicles -->
  
  <!-- Car 1 -->
  <g class="car1" style="animation-duration:27.5s">
    <rect x="0" y="187" width="18" height="7" fill="#3776ab" rx="2"/>
    <rect x="4" y="183" width="10" height="5" fill="#3776ab" rx="1"/>
    <rect x="5" y="184" width="4" height="3" fill="#fff9e0" rx="0.5" opacity="0.8"/>
    <rect x="10" y="184" width="3" height="3" fill="#fff9e0" rx="0.5" opacity="0.8"/>
    <circle cx="4"  cy="194" r="2.5" fill="#222"/>
    <circle cx="14" cy="194" r="2.5" fill="#222"/>
  </g>
  <!-- Car 2 RTL -->
  <g class="car2" style="animation-duration:43.8s">
    <rect x="0" y="189" width="16" height="6" fill="#e53935" rx="2"/>
    <rect x="3" y="185" width="9" height="5" fill="#e53935" rx="1"/>
    <rect x="4" y="186" width="3" height="3" fill="#fff9e0" rx="0.5" opacity="0.8"/>
    <rect x="9" y="186" width="3" height="3" fill="#fff9e0" rx="0.5" opacity="0.8"/>
    <circle cx="3"  cy="195" r="2.5" fill="#222"/>
    <circle cx="13" cy="195" r="2.5" fill="#222"/>
  </g>

  <!-- Walking character -->
  
  <g class="hero" style="animation-duration:10.0s">
    <!-- body -->
    <circle cx="4" cy="177" r="4" fill="#fff9e0"/>
    <line x1="4" y1="181" x2="4" y2="185" stroke="#fff9e0" stroke-width="2"/>
    <!-- legs (walk anim) -->
    <line class="leg-l" x1="4" y1="185" x2="2" y2="191" stroke="#fff9e0" stroke-width="1.5"/>
    <line class="leg-r" x1="4" y1="185" x2="6" y2="191" stroke="#fff9e0" stroke-width="1.5"/>
    <!-- arms -->
    <line x1="4" y1="183" x2="0" y2="181" stroke="#fff9e0" stroke-width="1.5"/>
    <line x1="4" y1="183" x2="8" y2="181" stroke="#fff9e0" stroke-width="1.5"/>
  </g>

  <!-- Monsters (issues) -->
  

  <!-- Birds -->
  

  <!-- HUD label -->
  
  <g>
    <rect x="8" y="8" width="200" height="22" rx="4" fill="rgba(0,0,0,0.5)"/>
    <text x="14" y="22" font-family="monospace" font-size="10" fill="#7ee787">
      🌍 gitatsujin's GitWorld · 36 commits
    </text>
  </g>
  <g>
    <rect x="782" y="8" width="110" height="22" rx="4" fill="rgba(0,0,0,0.5)"/>
    <text x="788" y="22" font-family="monospace" font-size="10" fill="#7ee787">
      🔥 0d streak
    </text>
  </g>

  <style>
    .star { animation: twinkle 3s ease-in-out infinite alternate; }
    @keyframes twinkle { 0%{opacity:.2} 100%{opacity:1} }

    .moon { }

    .cloud1 { animation: drift1 25s linear infinite; }
    .cloud2 { animation: drift2 35s linear infinite; }
    @keyframes drift1 { from{transform:translateX(-200px)} to{transform:translateX(1100px)} }
    @keyframes drift2 { from{transform:translateX(1100px)} to{transform:translateX(-200px)} }

    .blink { animation: blink 1.2s ease-in-out infinite; }
    @keyframes blink { 0%,49%{opacity:1} 50%,100%{opacity:0} }

    .win { animation: flicker 8s ease-in-out infinite alternate; }
    @keyframes flicker { 0%,90%{opacity:1} 92%,94%{opacity:.1} 96%{opacity:1} }

    .smoke {
      animation: rise 3s ease-out infinite;
      transform-origin: center;
    }
    @keyframes rise {
      0%   { transform:translateY(0) scale(1);   opacity:.6; }
      100% { transform:translateY(-20px) scale(2); opacity:0; }
    }

    .hero {
      animation: walk 10.0s linear infinite;
      transform-origin: 4px center;
    }
    @keyframes walk { from{transform:translateX(-10px)} to{transform:translateX(910px)} }

    .leg-l { animation: leg-l 1.00s ease-in-out infinite alternate; transform-origin: 4px 195px; }
    .leg-r { animation: leg-r 1.00s ease-in-out infinite alternate; transform-origin: 4px 195px; }
    @keyframes leg-l { from{transform:rotate(-20deg)} to{transform:rotate(20deg)} }
    @keyframes leg-r { from{transform:rotate(20deg)} to{transform:rotate(-20deg)} }

    .monster { animation: hover 2s ease-in-out infinite alternate; }
    @keyframes hover { from{transform:translateY(0)} to{transform:translateY(-4px)} }

    /* 🌧️ Weather */
    .rain { animation: fall linear infinite; }
    @keyframes fall { from{transform:translateY(-20px)} to{transform:translateY(195px)} }
    .snow { animation: drift ease-in-out infinite; }
    @keyframes drift {
      0%   { transform:translate(0,0); opacity:.8; }
      50%  { transform:translate(6px,97.5px); opacity:.6; }
      100% { transform:translate(-4px,195px); opacity:0; }
    }

    /* 🚂 Train */
    .train { animation: train-move linear infinite; transform-origin: 0 0; }
    @keyframes train-move { from{transform:translateX(-80px)} to{transform:translateX(980px)} }
    .train-smoke { animation: rise 2s ease-out infinite; transform-origin: center; }

    /* 🚗 Vehicles */
    .car1 { animation: car-ltr linear infinite; }
    @keyframes car-ltr { from{transform:translateX(-30px)} to{transform:translateX(930px)} }
    .car2 { animation: car-rtl linear infinite; }
    @keyframes car-rtl { from{transform:translateX(930px)} to{transform:translateX(-30px)} }

    /* 🎮 Birds */
    .bird { animation: fly linear infinite; }
    @keyframes fly {
      from { transform:translateX(-20px); }
      to   { transform:translateX(920px); }
    }
  </style>
</svg>